<mxfile host="app.diagrams.net" modified="2022-03-22T00:51:11.818Z" agent="5.0 (Windows NT 10.0; Win64; x64) AppleWebKit/537.36 (KHTML, like Gecko) Chrome/99.0.4844.74 Safari/537.36" etag="J3eJV7a8mMZoINJeUMKp" version="17.1.3" type="gitlab">
  <diagram id="R2lEEEUBdFMjLlhIrx00" name="Page-1">
    <mxGraphModel dx="7090" dy="3385" grid="1" gridSize="10" guides="1" tooltips="1" connect="1" arrows="1" fold="1" page="1" pageScale="1" pageWidth="850" pageHeight="1100" math="0" shadow="0" extFonts="Permanent Marker^https://fonts.googleapis.com/css?family=Permanent+Marker">
      <root>
        <mxCell id="0" />
        <mxCell id="1" parent="0" />
        <mxCell id="RLwTHn5g89vVSfLyBo9W-1" style="edgeStyle=orthogonalEdgeStyle;rounded=0;orthogonalLoop=1;jettySize=auto;html=1;entryX=0.5;entryY=1;entryDx=0;entryDy=0;endArrow=none;endFill=0;" parent="1" source="RLwTHn5g89vVSfLyBo9W-3" target="RLwTHn5g89vVSfLyBo9W-43" edge="1">
          <mxGeometry relative="1" as="geometry" />
        </mxCell>
        <mxCell id="RLwTHn5g89vVSfLyBo9W-2" style="edgeStyle=orthogonalEdgeStyle;rounded=0;orthogonalLoop=1;jettySize=auto;html=1;endArrow=none;endFill=0;" parent="1" source="RLwTHn5g89vVSfLyBo9W-3" target="RLwTHn5g89vVSfLyBo9W-86" edge="1">
          <mxGeometry relative="1" as="geometry">
            <mxPoint x="-55" y="1940" as="targetPoint" />
          </mxGeometry>
        </mxCell>
        <mxCell id="RLwTHn5g89vVSfLyBo9W-3" value="User(course_coordinator)" style="swimlane;fontStyle=1;childLayout=stackLayout;horizontal=1;startSize=26;fillColor=none;horizontalStack=0;resizeParent=1;resizeParentMax=0;resizeLast=0;collapsible=1;marginBottom=0;verticalAlign=middle;perimeterSpacing=3;rounded=1;glass=0;shadow=0;sketch=0;" parent="1" vertex="1">
          <mxGeometry x="-140" y="1620" width="170" height="260" as="geometry">
            <mxRectangle x="-810" y="50" width="100" height="30" as="alternateBounds" />
          </mxGeometry>
        </mxCell>
        <mxCell id="RLwTHn5g89vVSfLyBo9W-4" value="name (string)" style="text;strokeColor=none;fillColor=none;align=left;verticalAlign=top;spacingLeft=4;spacingRight=4;overflow=hidden;rotatable=0;points=[[0,0.5],[1,0.5]];portConstraint=eastwest;" parent="RLwTHn5g89vVSfLyBo9W-3" vertex="1">
          <mxGeometry y="26" width="170" height="26" as="geometry" />
        </mxCell>
        <mxCell id="RLwTHn5g89vVSfLyBo9W-5" value="nationality (string)" style="text;strokeColor=none;fillColor=none;align=left;verticalAlign=top;spacingLeft=4;spacingRight=4;overflow=hidden;rotatable=0;points=[[0,0.5],[1,0.5]];portConstraint=eastwest;" parent="RLwTHn5g89vVSfLyBo9W-3" vertex="1">
          <mxGeometry y="52" width="170" height="26" as="geometry" />
        </mxCell>
        <mxCell id="RLwTHn5g89vVSfLyBo9W-6" value="state (string)" style="text;strokeColor=none;fillColor=none;align=left;verticalAlign=top;spacingLeft=4;spacingRight=4;overflow=hidden;rotatable=0;points=[[0,0.5],[1,0.5]];portConstraint=eastwest;" parent="RLwTHn5g89vVSfLyBo9W-3" vertex="1">
          <mxGeometry y="78" width="170" height="26" as="geometry" />
        </mxCell>
        <mxCell id="RLwTHn5g89vVSfLyBo9W-7" value="rg (string)" style="text;strokeColor=none;fillColor=none;align=left;verticalAlign=top;spacingLeft=4;spacingRight=4;overflow=hidden;rotatable=0;points=[[0,0.5],[1,0.5]];portConstraint=eastwest;" parent="RLwTHn5g89vVSfLyBo9W-3" vertex="1">
          <mxGeometry y="104" width="170" height="26" as="geometry" />
        </mxCell>
        <mxCell id="RLwTHn5g89vVSfLyBo9W-8" value="cpf (string)" style="text;strokeColor=none;fillColor=none;align=left;verticalAlign=top;spacingLeft=4;spacingRight=4;overflow=hidden;rotatable=0;points=[[0,0.5],[1,0.5]];portConstraint=eastwest;" parent="RLwTHn5g89vVSfLyBo9W-3" vertex="1">
          <mxGeometry y="130" width="170" height="26" as="geometry" />
        </mxCell>
        <mxCell id="RLwTHn5g89vVSfLyBo9W-9" value="birth_data (string)" style="text;strokeColor=none;fillColor=none;align=left;verticalAlign=top;spacingLeft=4;spacingRight=4;overflow=hidden;rotatable=0;points=[[0,0.5],[1,0.5]];portConstraint=eastwest;" parent="RLwTHn5g89vVSfLyBo9W-3" vertex="1">
          <mxGeometry y="156" width="170" height="26" as="geometry" />
        </mxCell>
        <mxCell id="RLwTHn5g89vVSfLyBo9W-10" value="email (string)" style="text;strokeColor=none;fillColor=none;align=left;verticalAlign=top;spacingLeft=4;spacingRight=4;overflow=hidden;rotatable=0;points=[[0,0.5],[1,0.5]];portConstraint=eastwest;" parent="RLwTHn5g89vVSfLyBo9W-3" vertex="1">
          <mxGeometry y="182" width="170" height="26" as="geometry" />
        </mxCell>
        <mxCell id="RLwTHn5g89vVSfLyBo9W-11" value="password (string)" style="text;strokeColor=none;fillColor=none;align=left;verticalAlign=top;spacingLeft=4;spacingRight=4;overflow=hidden;rotatable=0;points=[[0,0.5],[1,0.5]];portConstraint=eastwest;" parent="RLwTHn5g89vVSfLyBo9W-3" vertex="1">
          <mxGeometry y="208" width="170" height="26" as="geometry" />
        </mxCell>
        <mxCell id="RLwTHn5g89vVSfLyBo9W-12" value="kind (integer)" style="text;strokeColor=none;fillColor=none;align=left;verticalAlign=top;spacingLeft=4;spacingRight=4;overflow=hidden;rotatable=0;points=[[0,0.5],[1,0.5]];portConstraint=eastwest;" parent="RLwTHn5g89vVSfLyBo9W-3" vertex="1">
          <mxGeometry y="234" width="170" height="26" as="geometry" />
        </mxCell>
        <mxCell id="RLwTHn5g89vVSfLyBo9W-13" style="edgeStyle=orthogonalEdgeStyle;rounded=0;orthogonalLoop=1;jettySize=auto;html=1;endArrow=none;endFill=0;" parent="1" source="RLwTHn5g89vVSfLyBo9W-14" target="RLwTHn5g89vVSfLyBo9W-43" edge="1">
          <mxGeometry relative="1" as="geometry">
            <mxPoint x="-215" y="1340" as="targetPoint" />
          </mxGeometry>
        </mxCell>
        <mxCell id="RLwTHn5g89vVSfLyBo9W-14" value="Course" style="swimlane;fontStyle=1;childLayout=stackLayout;horizontal=1;startSize=26;fillColor=none;horizontalStack=0;resizeParent=1;resizeParentMax=0;resizeLast=0;collapsible=1;marginBottom=0;verticalAlign=middle;perimeterSpacing=3;rounded=1;glass=0;shadow=0;sketch=0;" parent="1" vertex="1">
          <mxGeometry x="-140" y="1340" width="170" height="130" as="geometry">
            <mxRectangle x="-730" y="120" width="60" height="26" as="alternateBounds" />
          </mxGeometry>
        </mxCell>
        <mxCell id="RLwTHn5g89vVSfLyBo9W-15" value="name (string)" style="text;strokeColor=none;fillColor=none;align=left;verticalAlign=top;spacingLeft=4;spacingRight=4;overflow=hidden;rotatable=0;points=[[0,0.5],[1,0.5]];portConstraint=eastwest;" parent="RLwTHn5g89vVSfLyBo9W-14" vertex="1">
          <mxGeometry y="26" width="170" height="26" as="geometry" />
        </mxCell>
        <mxCell id="RLwTHn5g89vVSfLyBo9W-16" value="area_knowledge (string)" style="text;strokeColor=none;fillColor=none;align=left;verticalAlign=top;spacingLeft=4;spacingRight=4;overflow=hidden;rotatable=0;points=[[0,0.5],[1,0.5]];portConstraint=eastwest;" parent="RLwTHn5g89vVSfLyBo9W-14" vertex="1">
          <mxGeometry y="52" width="170" height="26" as="geometry" />
        </mxCell>
        <mxCell id="RLwTHn5g89vVSfLyBo9W-17" value="course_code (integer)" style="text;strokeColor=none;fillColor=none;align=left;verticalAlign=top;spacingLeft=4;spacingRight=4;overflow=hidden;rotatable=0;points=[[0,0.5],[1,0.5]];portConstraint=eastwest;" parent="RLwTHn5g89vVSfLyBo9W-14" vertex="1">
          <mxGeometry y="78" width="170" height="26" as="geometry" />
        </mxCell>
        <mxCell id="RLwTHn5g89vVSfLyBo9W-18" value="course_campus (string)" style="text;strokeColor=none;fillColor=none;align=left;verticalAlign=top;spacingLeft=4;spacingRight=4;overflow=hidden;rotatable=0;points=[[0,0.5],[1,0.5]];portConstraint=eastwest;" parent="RLwTHn5g89vVSfLyBo9W-14" vertex="1">
          <mxGeometry y="104" width="170" height="26" as="geometry" />
        </mxCell>
        <mxCell id="J4JI8BgiIcKV2Zqx2X6G-41" style="edgeStyle=orthogonalEdgeStyle;rounded=0;orthogonalLoop=1;jettySize=auto;html=1;entryX=1;entryY=0.5;entryDx=0;entryDy=0;endArrow=none;endFill=0;" edge="1" parent="1" source="RLwTHn5g89vVSfLyBo9W-20" target="RLwTHn5g89vVSfLyBo9W-72">
          <mxGeometry relative="1" as="geometry">
            <Array as="points">
              <mxPoint x="260" y="860" />
            </Array>
          </mxGeometry>
        </mxCell>
        <mxCell id="RLwTHn5g89vVSfLyBo9W-20" value="SchoolYear" style="swimlane;fontStyle=1;childLayout=stackLayout;horizontal=1;startSize=26;fillColor=none;horizontalStack=0;resizeParent=1;resizeParentMax=0;resizeLast=0;collapsible=1;marginBottom=0;verticalAlign=middle;perimeterSpacing=3;rounded=1;glass=0;shadow=0;sketch=0;" parent="1" vertex="1">
          <mxGeometry x="180" y="640" width="170" height="104" as="geometry">
            <mxRectangle x="-730" y="120" width="60" height="26" as="alternateBounds" />
          </mxGeometry>
        </mxCell>
        <mxCell id="RLwTHn5g89vVSfLyBo9W-21" value="year (integer)" style="text;strokeColor=none;fillColor=none;align=left;verticalAlign=top;spacingLeft=4;spacingRight=4;overflow=hidden;rotatable=0;points=[[0,0.5],[1,0.5]];portConstraint=eastwest;" parent="RLwTHn5g89vVSfLyBo9W-20" vertex="1">
          <mxGeometry y="26" width="170" height="26" as="geometry" />
        </mxCell>
        <mxCell id="RLwTHn5g89vVSfLyBo9W-22" value="semester (integer)" style="text;strokeColor=none;fillColor=none;align=left;verticalAlign=top;spacingLeft=4;spacingRight=4;overflow=hidden;rotatable=0;points=[[0,0.5],[1,0.5]];portConstraint=eastwest;" parent="RLwTHn5g89vVSfLyBo9W-20" vertex="1">
          <mxGeometry y="52" width="170" height="26" as="geometry" />
        </mxCell>
        <mxCell id="RLwTHn5g89vVSfLyBo9W-23" value="status (integer)" style="text;strokeColor=none;fillColor=none;align=left;verticalAlign=top;spacingLeft=4;spacingRight=4;overflow=hidden;rotatable=0;points=[[0,0.5],[1,0.5]];portConstraint=eastwest;" parent="RLwTHn5g89vVSfLyBo9W-20" vertex="1">
          <mxGeometry y="78" width="170" height="26" as="geometry" />
        </mxCell>
        <mxCell id="RLwTHn5g89vVSfLyBo9W-24" value="Department" style="swimlane;fontStyle=1;childLayout=stackLayout;horizontal=1;startSize=26;fillColor=none;horizontalStack=0;resizeParent=1;resizeParentMax=0;resizeLast=0;collapsible=1;marginBottom=0;verticalAlign=middle;perimeterSpacing=3;rounded=1;glass=0;shadow=0;sketch=0;" parent="1" vertex="1">
          <mxGeometry x="-380" y="660" width="170" height="130" as="geometry">
            <mxRectangle x="-810" y="50" width="100" height="30" as="alternateBounds" />
          </mxGeometry>
        </mxCell>
        <mxCell id="RLwTHn5g89vVSfLyBo9W-25" value="name (string)" style="text;strokeColor=none;fillColor=none;align=left;verticalAlign=top;spacingLeft=4;spacingRight=4;overflow=hidden;rotatable=0;points=[[0,0.5],[1,0.5]];portConstraint=eastwest;" parent="RLwTHn5g89vVSfLyBo9W-24" vertex="1">
          <mxGeometry y="26" width="170" height="26" as="geometry" />
        </mxCell>
        <mxCell id="RLwTHn5g89vVSfLyBo9W-26" value="area_knowledge (string)" style="text;strokeColor=none;fillColor=none;align=left;verticalAlign=top;spacingLeft=4;spacingRight=4;overflow=hidden;rotatable=0;points=[[0,0.5],[1,0.5]];portConstraint=eastwest;" parent="RLwTHn5g89vVSfLyBo9W-24" vertex="1">
          <mxGeometry y="52" width="170" height="26" as="geometry" />
        </mxCell>
        <mxCell id="RLwTHn5g89vVSfLyBo9W-27" value="department_code (integer)" style="text;strokeColor=none;fillColor=none;align=left;verticalAlign=top;spacingLeft=4;spacingRight=4;overflow=hidden;rotatable=0;points=[[0,0.5],[1,0.5]];portConstraint=eastwest;" parent="RLwTHn5g89vVSfLyBo9W-24" vertex="1">
          <mxGeometry y="78" width="170" height="26" as="geometry" />
        </mxCell>
        <mxCell id="RLwTHn5g89vVSfLyBo9W-28" value="department_campus (string)" style="text;strokeColor=none;fillColor=none;align=left;verticalAlign=top;spacingLeft=4;spacingRight=4;overflow=hidden;rotatable=0;points=[[0,0.5],[1,0.5]];portConstraint=eastwest;" parent="RLwTHn5g89vVSfLyBo9W-24" vertex="1">
          <mxGeometry y="104" width="170" height="26" as="geometry" />
        </mxCell>
        <mxCell id="RLwTHn5g89vVSfLyBo9W-29" style="edgeStyle=orthogonalEdgeStyle;rounded=0;orthogonalLoop=1;jettySize=auto;html=1;endArrow=none;endFill=0;" parent="1" source="RLwTHn5g89vVSfLyBo9W-30" target="RLwTHn5g89vVSfLyBo9W-84" edge="1">
          <mxGeometry relative="1" as="geometry">
            <mxPoint x="-545" y="1480" as="targetPoint" />
          </mxGeometry>
        </mxCell>
        <mxCell id="RLwTHn5g89vVSfLyBo9W-30" value="Subject" style="swimlane;fontStyle=1;childLayout=stackLayout;horizontal=1;startSize=26;fillColor=none;horizontalStack=0;resizeParent=1;resizeParentMax=0;resizeLast=0;collapsible=1;marginBottom=0;verticalAlign=middle;perimeterSpacing=3;rounded=1;glass=0;shadow=0;sketch=0;" parent="1" vertex="1">
          <mxGeometry x="-630" y="1340" width="170" height="104" as="geometry">
            <mxRectangle x="-810" y="50" width="100" height="30" as="alternateBounds" />
          </mxGeometry>
        </mxCell>
        <mxCell id="RLwTHn5g89vVSfLyBo9W-31" value="name (string)" style="text;strokeColor=none;fillColor=none;align=left;verticalAlign=top;spacingLeft=4;spacingRight=4;overflow=hidden;rotatable=0;points=[[0,0.5],[1,0.5]];portConstraint=eastwest;" parent="RLwTHn5g89vVSfLyBo9W-30" vertex="1">
          <mxGeometry y="26" width="170" height="26" as="geometry" />
        </mxCell>
        <mxCell id="RLwTHn5g89vVSfLyBo9W-32" value="hours (integer)" style="text;strokeColor=none;fillColor=none;align=left;verticalAlign=top;spacingLeft=4;spacingRight=4;overflow=hidden;rotatable=0;points=[[0,0.5],[1,0.5]];portConstraint=eastwest;" parent="RLwTHn5g89vVSfLyBo9W-30" vertex="1">
          <mxGeometry y="52" width="170" height="26" as="geometry" />
        </mxCell>
        <mxCell id="RLwTHn5g89vVSfLyBo9W-33" value="area_knowledge (string)" style="text;strokeColor=none;fillColor=none;align=left;verticalAlign=top;spacingLeft=4;spacingRight=4;overflow=hidden;rotatable=0;points=[[0,0.5],[1,0.5]];portConstraint=eastwest;" parent="RLwTHn5g89vVSfLyBo9W-30" vertex="1">
          <mxGeometry y="78" width="170" height="26" as="geometry" />
        </mxCell>
        <mxCell id="RLwTHn5g89vVSfLyBo9W-34" value="Class" style="swimlane;fontStyle=1;childLayout=stackLayout;horizontal=1;startSize=26;fillColor=none;horizontalStack=0;resizeParent=1;resizeParentMax=0;resizeLast=0;collapsible=1;marginBottom=0;verticalAlign=middle;perimeterSpacing=3;rounded=1;glass=0;shadow=0;sketch=0;" parent="1" vertex="1">
          <mxGeometry x="-630" y="1600" width="170" height="130" as="geometry">
            <mxRectangle x="-810" y="50" width="100" height="30" as="alternateBounds" />
          </mxGeometry>
        </mxCell>
        <mxCell id="RLwTHn5g89vVSfLyBo9W-35" value="name (string)" style="text;strokeColor=none;fillColor=none;align=left;verticalAlign=top;spacingLeft=4;spacingRight=4;overflow=hidden;rotatable=0;points=[[0,0.5],[1,0.5]];portConstraint=eastwest;" parent="RLwTHn5g89vVSfLyBo9W-34" vertex="1">
          <mxGeometry y="26" width="170" height="26" as="geometry" />
        </mxCell>
        <mxCell id="RLwTHn5g89vVSfLyBo9W-36" value="class_code (string)" style="text;strokeColor=none;fillColor=none;align=left;verticalAlign=top;spacingLeft=4;spacingRight=4;overflow=hidden;rotatable=0;points=[[0,0.5],[1,0.5]];portConstraint=eastwest;" parent="RLwTHn5g89vVSfLyBo9W-34" vertex="1">
          <mxGeometry y="52" width="170" height="26" as="geometry" />
        </mxCell>
        <mxCell id="RLwTHn5g89vVSfLyBo9W-37" value="calendar (string)" style="text;strokeColor=none;fillColor=none;align=left;verticalAlign=top;spacingLeft=4;spacingRight=4;overflow=hidden;rotatable=0;points=[[0,0.5],[1,0.5]];portConstraint=eastwest;" parent="RLwTHn5g89vVSfLyBo9W-34" vertex="1">
          <mxGeometry y="78" width="170" height="26" as="geometry" />
        </mxCell>
        <mxCell id="RLwTHn5g89vVSfLyBo9W-38" value="class_room (string)" style="text;strokeColor=none;fillColor=none;align=left;verticalAlign=top;spacingLeft=4;spacingRight=4;overflow=hidden;rotatable=0;points=[[0,0.5],[1,0.5]];portConstraint=eastwest;" parent="RLwTHn5g89vVSfLyBo9W-34" vertex="1">
          <mxGeometry y="104" width="170" height="26" as="geometry" />
        </mxCell>
        <mxCell id="RLwTHn5g89vVSfLyBo9W-39" style="edgeStyle=orthogonalEdgeStyle;rounded=0;orthogonalLoop=1;jettySize=auto;html=1;entryX=0.5;entryY=0;entryDx=0;entryDy=0;endArrow=none;endFill=0;" parent="1" source="RLwTHn5g89vVSfLyBo9W-42" target="RLwTHn5g89vVSfLyBo9W-58" edge="1">
          <mxGeometry relative="1" as="geometry" />
        </mxCell>
        <mxCell id="RLwTHn5g89vVSfLyBo9W-40" style="edgeStyle=orthogonalEdgeStyle;rounded=0;orthogonalLoop=1;jettySize=auto;html=1;entryX=0.47;entryY=0.043;entryDx=0;entryDy=0;entryPerimeter=0;endArrow=none;endFill=0;exitX=0;exitY=0.5;exitDx=0;exitDy=0;" parent="1" source="RLwTHn5g89vVSfLyBo9W-42" target="RLwTHn5g89vVSfLyBo9W-30" edge="1">
          <mxGeometry relative="1" as="geometry" />
        </mxCell>
        <mxCell id="RLwTHn5g89vVSfLyBo9W-41" style="edgeStyle=orthogonalEdgeStyle;rounded=0;orthogonalLoop=1;jettySize=auto;html=1;entryX=0.5;entryY=1.038;entryDx=0;entryDy=0;entryPerimeter=0;endArrow=none;endFill=0;" parent="1" source="RLwTHn5g89vVSfLyBo9W-42" target="RLwTHn5g89vVSfLyBo9W-82" edge="1">
          <mxGeometry relative="1" as="geometry" />
        </mxCell>
        <mxCell id="J4JI8BgiIcKV2Zqx2X6G-38" style="edgeStyle=orthogonalEdgeStyle;rounded=0;orthogonalLoop=1;jettySize=auto;html=1;entryX=0.5;entryY=0;entryDx=0;entryDy=0;endArrow=none;endFill=0;" edge="1" parent="1" source="RLwTHn5g89vVSfLyBo9W-42" target="RLwTHn5g89vVSfLyBo9W-14">
          <mxGeometry relative="1" as="geometry" />
        </mxCell>
        <mxCell id="RLwTHn5g89vVSfLyBo9W-42" value="manage" style="rhombus;whiteSpace=wrap;html=1;rounded=1;shadow=0;glass=0;sketch=0;strokeColor=default;fillColor=none;" parent="1" vertex="1">
          <mxGeometry x="-360" y="1230" width="130" height="60" as="geometry" />
        </mxCell>
        <mxCell id="RLwTHn5g89vVSfLyBo9W-43" value="has" style="rhombus;whiteSpace=wrap;html=1;rounded=1;shadow=0;glass=0;sketch=0;strokeColor=default;fillColor=none;" parent="1" vertex="1">
          <mxGeometry x="-120" y="1520" width="130" height="60" as="geometry" />
        </mxCell>
        <mxCell id="RLwTHn5g89vVSfLyBo9W-47" style="edgeStyle=orthogonalEdgeStyle;rounded=0;orthogonalLoop=1;jettySize=auto;html=1;endArrow=none;endFill=0;" parent="1" source="RLwTHn5g89vVSfLyBo9W-48" target="RLwTHn5g89vVSfLyBo9W-69" edge="1">
          <mxGeometry relative="1" as="geometry">
            <mxPoint x="-5" y="380" as="targetPoint" />
          </mxGeometry>
        </mxCell>
        <mxCell id="RLwTHn5g89vVSfLyBo9W-48" value="User(Director)" style="swimlane;fontStyle=1;childLayout=stackLayout;horizontal=1;startSize=26;fillColor=none;horizontalStack=0;resizeParent=1;resizeParentMax=0;resizeLast=0;collapsible=1;marginBottom=0;verticalAlign=middle;perimeterSpacing=3;rounded=1;glass=0;shadow=0;sketch=0;" parent="1" vertex="1">
          <mxGeometry x="-90" y="70" width="170" height="260" as="geometry">
            <mxRectangle x="-810" y="50" width="100" height="30" as="alternateBounds" />
          </mxGeometry>
        </mxCell>
        <mxCell id="RLwTHn5g89vVSfLyBo9W-49" value="name (string)" style="text;strokeColor=none;fillColor=none;align=left;verticalAlign=top;spacingLeft=4;spacingRight=4;overflow=hidden;rotatable=0;points=[[0,0.5],[1,0.5]];portConstraint=eastwest;" parent="RLwTHn5g89vVSfLyBo9W-48" vertex="1">
          <mxGeometry y="26" width="170" height="26" as="geometry" />
        </mxCell>
        <mxCell id="RLwTHn5g89vVSfLyBo9W-50" value="nationality (string)" style="text;strokeColor=none;fillColor=none;align=left;verticalAlign=top;spacingLeft=4;spacingRight=4;overflow=hidden;rotatable=0;points=[[0,0.5],[1,0.5]];portConstraint=eastwest;" parent="RLwTHn5g89vVSfLyBo9W-48" vertex="1">
          <mxGeometry y="52" width="170" height="26" as="geometry" />
        </mxCell>
        <mxCell id="RLwTHn5g89vVSfLyBo9W-51" value="state (string)" style="text;strokeColor=none;fillColor=none;align=left;verticalAlign=top;spacingLeft=4;spacingRight=4;overflow=hidden;rotatable=0;points=[[0,0.5],[1,0.5]];portConstraint=eastwest;" parent="RLwTHn5g89vVSfLyBo9W-48" vertex="1">
          <mxGeometry y="78" width="170" height="26" as="geometry" />
        </mxCell>
        <mxCell id="RLwTHn5g89vVSfLyBo9W-52" value="rg (string)" style="text;strokeColor=none;fillColor=none;align=left;verticalAlign=top;spacingLeft=4;spacingRight=4;overflow=hidden;rotatable=0;points=[[0,0.5],[1,0.5]];portConstraint=eastwest;" parent="RLwTHn5g89vVSfLyBo9W-48" vertex="1">
          <mxGeometry y="104" width="170" height="26" as="geometry" />
        </mxCell>
        <mxCell id="RLwTHn5g89vVSfLyBo9W-53" value="cpf (string)" style="text;strokeColor=none;fillColor=none;align=left;verticalAlign=top;spacingLeft=4;spacingRight=4;overflow=hidden;rotatable=0;points=[[0,0.5],[1,0.5]];portConstraint=eastwest;" parent="RLwTHn5g89vVSfLyBo9W-48" vertex="1">
          <mxGeometry y="130" width="170" height="26" as="geometry" />
        </mxCell>
        <mxCell id="RLwTHn5g89vVSfLyBo9W-54" value="birth_data (string)" style="text;strokeColor=none;fillColor=none;align=left;verticalAlign=top;spacingLeft=4;spacingRight=4;overflow=hidden;rotatable=0;points=[[0,0.5],[1,0.5]];portConstraint=eastwest;" parent="RLwTHn5g89vVSfLyBo9W-48" vertex="1">
          <mxGeometry y="156" width="170" height="26" as="geometry" />
        </mxCell>
        <mxCell id="RLwTHn5g89vVSfLyBo9W-55" value="email (string)" style="text;strokeColor=none;fillColor=none;align=left;verticalAlign=top;spacingLeft=4;spacingRight=4;overflow=hidden;rotatable=0;points=[[0,0.5],[1,0.5]];portConstraint=eastwest;" parent="RLwTHn5g89vVSfLyBo9W-48" vertex="1">
          <mxGeometry y="182" width="170" height="26" as="geometry" />
        </mxCell>
        <mxCell id="RLwTHn5g89vVSfLyBo9W-56" value="password (string)" style="text;strokeColor=none;fillColor=none;align=left;verticalAlign=top;spacingLeft=4;spacingRight=4;overflow=hidden;rotatable=0;points=[[0,0.5],[1,0.5]];portConstraint=eastwest;" parent="RLwTHn5g89vVSfLyBo9W-48" vertex="1">
          <mxGeometry y="208" width="170" height="26" as="geometry" />
        </mxCell>
        <mxCell id="RLwTHn5g89vVSfLyBo9W-57" value="kind (integer)" style="text;strokeColor=none;fillColor=none;align=left;verticalAlign=top;spacingLeft=4;spacingRight=4;overflow=hidden;rotatable=0;points=[[0,0.5],[1,0.5]];portConstraint=eastwest;" parent="RLwTHn5g89vVSfLyBo9W-48" vertex="1">
          <mxGeometry y="234" width="170" height="26" as="geometry" />
        </mxCell>
        <mxCell id="RLwTHn5g89vVSfLyBo9W-58" value="User(Professor)" style="swimlane;fontStyle=1;childLayout=stackLayout;horizontal=1;startSize=26;fillColor=none;horizontalStack=0;resizeParent=1;resizeParentMax=0;resizeLast=0;collapsible=1;marginBottom=0;verticalAlign=middle;perimeterSpacing=3;rounded=1;glass=0;shadow=0;sketch=0;" parent="1" vertex="1">
          <mxGeometry x="-380" y="1340" width="170" height="260" as="geometry">
            <mxRectangle x="-810" y="50" width="100" height="30" as="alternateBounds" />
          </mxGeometry>
        </mxCell>
        <mxCell id="RLwTHn5g89vVSfLyBo9W-59" value="name (string)" style="text;strokeColor=none;fillColor=none;align=left;verticalAlign=top;spacingLeft=4;spacingRight=4;overflow=hidden;rotatable=0;points=[[0,0.5],[1,0.5]];portConstraint=eastwest;" parent="RLwTHn5g89vVSfLyBo9W-58" vertex="1">
          <mxGeometry y="26" width="170" height="26" as="geometry" />
        </mxCell>
        <mxCell id="RLwTHn5g89vVSfLyBo9W-60" value="nationality (string)" style="text;strokeColor=none;fillColor=none;align=left;verticalAlign=top;spacingLeft=4;spacingRight=4;overflow=hidden;rotatable=0;points=[[0,0.5],[1,0.5]];portConstraint=eastwest;" parent="RLwTHn5g89vVSfLyBo9W-58" vertex="1">
          <mxGeometry y="52" width="170" height="26" as="geometry" />
        </mxCell>
        <mxCell id="RLwTHn5g89vVSfLyBo9W-61" value="state (string)" style="text;strokeColor=none;fillColor=none;align=left;verticalAlign=top;spacingLeft=4;spacingRight=4;overflow=hidden;rotatable=0;points=[[0,0.5],[1,0.5]];portConstraint=eastwest;" parent="RLwTHn5g89vVSfLyBo9W-58" vertex="1">
          <mxGeometry y="78" width="170" height="26" as="geometry" />
        </mxCell>
        <mxCell id="RLwTHn5g89vVSfLyBo9W-62" value="rg (string)" style="text;strokeColor=none;fillColor=none;align=left;verticalAlign=top;spacingLeft=4;spacingRight=4;overflow=hidden;rotatable=0;points=[[0,0.5],[1,0.5]];portConstraint=eastwest;" parent="RLwTHn5g89vVSfLyBo9W-58" vertex="1">
          <mxGeometry y="104" width="170" height="26" as="geometry" />
        </mxCell>
        <mxCell id="RLwTHn5g89vVSfLyBo9W-63" value="cpf (string)" style="text;strokeColor=none;fillColor=none;align=left;verticalAlign=top;spacingLeft=4;spacingRight=4;overflow=hidden;rotatable=0;points=[[0,0.5],[1,0.5]];portConstraint=eastwest;" parent="RLwTHn5g89vVSfLyBo9W-58" vertex="1">
          <mxGeometry y="130" width="170" height="26" as="geometry" />
        </mxCell>
        <mxCell id="RLwTHn5g89vVSfLyBo9W-64" value="birth_data (string)" style="text;strokeColor=none;fillColor=none;align=left;verticalAlign=top;spacingLeft=4;spacingRight=4;overflow=hidden;rotatable=0;points=[[0,0.5],[1,0.5]];portConstraint=eastwest;" parent="RLwTHn5g89vVSfLyBo9W-58" vertex="1">
          <mxGeometry y="156" width="170" height="26" as="geometry" />
        </mxCell>
        <mxCell id="RLwTHn5g89vVSfLyBo9W-65" value="email (string)" style="text;strokeColor=none;fillColor=none;align=left;verticalAlign=top;spacingLeft=4;spacingRight=4;overflow=hidden;rotatable=0;points=[[0,0.5],[1,0.5]];portConstraint=eastwest;" parent="RLwTHn5g89vVSfLyBo9W-58" vertex="1">
          <mxGeometry y="182" width="170" height="26" as="geometry" />
        </mxCell>
        <mxCell id="RLwTHn5g89vVSfLyBo9W-66" value="password (string)" style="text;strokeColor=none;fillColor=none;align=left;verticalAlign=top;spacingLeft=4;spacingRight=4;overflow=hidden;rotatable=0;points=[[0,0.5],[1,0.5]];portConstraint=eastwest;" parent="RLwTHn5g89vVSfLyBo9W-58" vertex="1">
          <mxGeometry y="208" width="170" height="26" as="geometry" />
        </mxCell>
        <mxCell id="RLwTHn5g89vVSfLyBo9W-67" value="kind (integer)" style="text;strokeColor=none;fillColor=none;align=left;verticalAlign=top;spacingLeft=4;spacingRight=4;overflow=hidden;rotatable=0;points=[[0,0.5],[1,0.5]];portConstraint=eastwest;" parent="RLwTHn5g89vVSfLyBo9W-58" vertex="1">
          <mxGeometry y="234" width="170" height="26" as="geometry" />
        </mxCell>
        <mxCell id="J4JI8BgiIcKV2Zqx2X6G-33" style="edgeStyle=orthogonalEdgeStyle;rounded=0;orthogonalLoop=1;jettySize=auto;html=1;entryX=0.5;entryY=0;entryDx=0;entryDy=0;endArrow=none;endFill=0;" edge="1" parent="1" source="RLwTHn5g89vVSfLyBo9W-69" target="RLwTHn5g89vVSfLyBo9W-24">
          <mxGeometry relative="1" as="geometry" />
        </mxCell>
        <mxCell id="J4JI8BgiIcKV2Zqx2X6G-37" style="edgeStyle=orthogonalEdgeStyle;rounded=0;orthogonalLoop=1;jettySize=auto;html=1;endArrow=none;endFill=0;" edge="1" parent="1" source="RLwTHn5g89vVSfLyBo9W-69" target="RLwTHn5g89vVSfLyBo9W-20">
          <mxGeometry relative="1" as="geometry" />
        </mxCell>
        <mxCell id="RLwTHn5g89vVSfLyBo9W-69" value="manage" style="rhombus;whiteSpace=wrap;html=1;rounded=1;shadow=0;glass=0;sketch=0;strokeColor=default;fillColor=none;" parent="1" vertex="1">
          <mxGeometry x="-70" y="370" width="130" height="60" as="geometry" />
        </mxCell>
        <mxCell id="RLwTHn5g89vVSfLyBo9W-70" style="edgeStyle=orthogonalEdgeStyle;rounded=0;orthogonalLoop=1;jettySize=auto;html=1;entryX=0.497;entryY=1.026;entryDx=0;entryDy=0;entryPerimeter=0;endArrow=none;endFill=0;" parent="1" source="RLwTHn5g89vVSfLyBo9W-72" target="RLwTHn5g89vVSfLyBo9W-28" edge="1">
          <mxGeometry relative="1" as="geometry" />
        </mxCell>
        <mxCell id="RLwTHn5g89vVSfLyBo9W-71" style="edgeStyle=orthogonalEdgeStyle;rounded=0;orthogonalLoop=1;jettySize=auto;html=1;entryX=0.5;entryY=0;entryDx=0;entryDy=0;endArrow=none;endFill=0;" parent="1" source="RLwTHn5g89vVSfLyBo9W-72" target="RLwTHn5g89vVSfLyBo9W-73" edge="1">
          <mxGeometry relative="1" as="geometry" />
        </mxCell>
        <mxCell id="RLwTHn5g89vVSfLyBo9W-72" value="has" style="rhombus;whiteSpace=wrap;html=1;rounded=1;shadow=0;glass=0;sketch=0;strokeColor=default;fillColor=none;" parent="1" vertex="1">
          <mxGeometry x="-360" y="830" width="130" height="60" as="geometry" />
        </mxCell>
        <mxCell id="RLwTHn5g89vVSfLyBo9W-73" value="User(department_coordinator)" style="swimlane;fontStyle=1;childLayout=stackLayout;horizontal=1;startSize=26;fillColor=none;horizontalStack=0;resizeParent=1;resizeParentMax=0;resizeLast=0;collapsible=1;marginBottom=0;verticalAlign=middle;perimeterSpacing=3;rounded=1;glass=0;shadow=0;sketch=0;" parent="1" vertex="1">
          <mxGeometry x="-410" y="930" width="230" height="260" as="geometry">
            <mxRectangle x="-810" y="50" width="100" height="30" as="alternateBounds" />
          </mxGeometry>
        </mxCell>
        <mxCell id="RLwTHn5g89vVSfLyBo9W-74" value="name (string)" style="text;strokeColor=none;fillColor=none;align=left;verticalAlign=top;spacingLeft=4;spacingRight=4;overflow=hidden;rotatable=0;points=[[0,0.5],[1,0.5]];portConstraint=eastwest;" parent="RLwTHn5g89vVSfLyBo9W-73" vertex="1">
          <mxGeometry y="26" width="230" height="26" as="geometry" />
        </mxCell>
        <mxCell id="RLwTHn5g89vVSfLyBo9W-75" value="nationality (string)" style="text;strokeColor=none;fillColor=none;align=left;verticalAlign=top;spacingLeft=4;spacingRight=4;overflow=hidden;rotatable=0;points=[[0,0.5],[1,0.5]];portConstraint=eastwest;" parent="RLwTHn5g89vVSfLyBo9W-73" vertex="1">
          <mxGeometry y="52" width="230" height="26" as="geometry" />
        </mxCell>
        <mxCell id="RLwTHn5g89vVSfLyBo9W-76" value="state (string)" style="text;strokeColor=none;fillColor=none;align=left;verticalAlign=top;spacingLeft=4;spacingRight=4;overflow=hidden;rotatable=0;points=[[0,0.5],[1,0.5]];portConstraint=eastwest;" parent="RLwTHn5g89vVSfLyBo9W-73" vertex="1">
          <mxGeometry y="78" width="230" height="26" as="geometry" />
        </mxCell>
        <mxCell id="RLwTHn5g89vVSfLyBo9W-77" value="rg (string)" style="text;strokeColor=none;fillColor=none;align=left;verticalAlign=top;spacingLeft=4;spacingRight=4;overflow=hidden;rotatable=0;points=[[0,0.5],[1,0.5]];portConstraint=eastwest;" parent="RLwTHn5g89vVSfLyBo9W-73" vertex="1">
          <mxGeometry y="104" width="230" height="26" as="geometry" />
        </mxCell>
        <mxCell id="RLwTHn5g89vVSfLyBo9W-78" value="cpf (string)" style="text;strokeColor=none;fillColor=none;align=left;verticalAlign=top;spacingLeft=4;spacingRight=4;overflow=hidden;rotatable=0;points=[[0,0.5],[1,0.5]];portConstraint=eastwest;" parent="RLwTHn5g89vVSfLyBo9W-73" vertex="1">
          <mxGeometry y="130" width="230" height="26" as="geometry" />
        </mxCell>
        <mxCell id="RLwTHn5g89vVSfLyBo9W-79" value="birth_data (string)" style="text;strokeColor=none;fillColor=none;align=left;verticalAlign=top;spacingLeft=4;spacingRight=4;overflow=hidden;rotatable=0;points=[[0,0.5],[1,0.5]];portConstraint=eastwest;" parent="RLwTHn5g89vVSfLyBo9W-73" vertex="1">
          <mxGeometry y="156" width="230" height="26" as="geometry" />
        </mxCell>
        <mxCell id="RLwTHn5g89vVSfLyBo9W-80" value="email (string)" style="text;strokeColor=none;fillColor=none;align=left;verticalAlign=top;spacingLeft=4;spacingRight=4;overflow=hidden;rotatable=0;points=[[0,0.5],[1,0.5]];portConstraint=eastwest;" parent="RLwTHn5g89vVSfLyBo9W-73" vertex="1">
          <mxGeometry y="182" width="230" height="26" as="geometry" />
        </mxCell>
        <mxCell id="RLwTHn5g89vVSfLyBo9W-81" value="password (string)" style="text;strokeColor=none;fillColor=none;align=left;verticalAlign=top;spacingLeft=4;spacingRight=4;overflow=hidden;rotatable=0;points=[[0,0.5],[1,0.5]];portConstraint=eastwest;" parent="RLwTHn5g89vVSfLyBo9W-73" vertex="1">
          <mxGeometry y="208" width="230" height="26" as="geometry" />
        </mxCell>
        <mxCell id="RLwTHn5g89vVSfLyBo9W-82" value="kind (integer)" style="text;strokeColor=none;fillColor=none;align=left;verticalAlign=top;spacingLeft=4;spacingRight=4;overflow=hidden;rotatable=0;points=[[0,0.5],[1,0.5]];portConstraint=eastwest;" parent="RLwTHn5g89vVSfLyBo9W-73" vertex="1">
          <mxGeometry y="234" width="230" height="26" as="geometry" />
        </mxCell>
        <mxCell id="RLwTHn5g89vVSfLyBo9W-83" style="edgeStyle=orthogonalEdgeStyle;rounded=0;orthogonalLoop=1;jettySize=auto;html=1;entryX=0.5;entryY=0;entryDx=0;entryDy=0;endArrow=none;endFill=0;" parent="1" source="RLwTHn5g89vVSfLyBo9W-84" target="RLwTHn5g89vVSfLyBo9W-34" edge="1">
          <mxGeometry relative="1" as="geometry" />
        </mxCell>
        <mxCell id="RLwTHn5g89vVSfLyBo9W-84" value="has" style="rhombus;whiteSpace=wrap;html=1;rounded=1;shadow=0;glass=0;sketch=0;strokeColor=default;fillColor=none;" parent="1" vertex="1">
          <mxGeometry x="-610" y="1490" width="130" height="60" as="geometry" />
        </mxCell>
        <mxCell id="RLwTHn5g89vVSfLyBo9W-85" style="edgeStyle=orthogonalEdgeStyle;rounded=0;orthogonalLoop=1;jettySize=auto;html=1;endArrow=none;endFill=0;entryX=0.5;entryY=0;entryDx=0;entryDy=0;" parent="1" source="RLwTHn5g89vVSfLyBo9W-86" edge="1" target="RLwTHn5g89vVSfLyBo9W-87">
          <mxGeometry relative="1" as="geometry">
            <mxPoint x="-55" y="2020" as="targetPoint" />
          </mxGeometry>
        </mxCell>
        <mxCell id="RLwTHn5g89vVSfLyBo9W-86" value="manage" style="rhombus;whiteSpace=wrap;html=1;rounded=1;shadow=0;glass=0;sketch=0;strokeColor=default;fillColor=none;" parent="1" vertex="1">
          <mxGeometry x="-120" y="1910" width="130" height="60" as="geometry" />
        </mxCell>
        <mxCell id="RLwTHn5g89vVSfLyBo9W-87" value="User(student)" style="swimlane;fontStyle=1;childLayout=stackLayout;horizontal=1;startSize=26;fillColor=none;horizontalStack=0;resizeParent=1;resizeParentMax=0;resizeLast=0;collapsible=1;marginBottom=0;verticalAlign=middle;perimeterSpacing=3;rounded=1;glass=0;shadow=0;sketch=0;" parent="1" vertex="1">
          <mxGeometry x="-140" y="2010" width="170" height="260" as="geometry">
            <mxRectangle x="-810" y="50" width="100" height="30" as="alternateBounds" />
          </mxGeometry>
        </mxCell>
        <mxCell id="RLwTHn5g89vVSfLyBo9W-88" value="name (string)" style="text;strokeColor=none;fillColor=none;align=left;verticalAlign=top;spacingLeft=4;spacingRight=4;overflow=hidden;rotatable=0;points=[[0,0.5],[1,0.5]];portConstraint=eastwest;" parent="RLwTHn5g89vVSfLyBo9W-87" vertex="1">
          <mxGeometry y="26" width="170" height="26" as="geometry" />
        </mxCell>
        <mxCell id="RLwTHn5g89vVSfLyBo9W-89" value="nationality (string)" style="text;strokeColor=none;fillColor=none;align=left;verticalAlign=top;spacingLeft=4;spacingRight=4;overflow=hidden;rotatable=0;points=[[0,0.5],[1,0.5]];portConstraint=eastwest;" parent="RLwTHn5g89vVSfLyBo9W-87" vertex="1">
          <mxGeometry y="52" width="170" height="26" as="geometry" />
        </mxCell>
        <mxCell id="RLwTHn5g89vVSfLyBo9W-90" value="state (string)" style="text;strokeColor=none;fillColor=none;align=left;verticalAlign=top;spacingLeft=4;spacingRight=4;overflow=hidden;rotatable=0;points=[[0,0.5],[1,0.5]];portConstraint=eastwest;" parent="RLwTHn5g89vVSfLyBo9W-87" vertex="1">
          <mxGeometry y="78" width="170" height="26" as="geometry" />
        </mxCell>
        <mxCell id="RLwTHn5g89vVSfLyBo9W-91" value="rg (string)" style="text;strokeColor=none;fillColor=none;align=left;verticalAlign=top;spacingLeft=4;spacingRight=4;overflow=hidden;rotatable=0;points=[[0,0.5],[1,0.5]];portConstraint=eastwest;" parent="RLwTHn5g89vVSfLyBo9W-87" vertex="1">
          <mxGeometry y="104" width="170" height="26" as="geometry" />
        </mxCell>
        <mxCell id="RLwTHn5g89vVSfLyBo9W-92" value="cpf (string)" style="text;strokeColor=none;fillColor=none;align=left;verticalAlign=top;spacingLeft=4;spacingRight=4;overflow=hidden;rotatable=0;points=[[0,0.5],[1,0.5]];portConstraint=eastwest;" parent="RLwTHn5g89vVSfLyBo9W-87" vertex="1">
          <mxGeometry y="130" width="170" height="26" as="geometry" />
        </mxCell>
        <mxCell id="RLwTHn5g89vVSfLyBo9W-93" value="birth_data (string)" style="text;strokeColor=none;fillColor=none;align=left;verticalAlign=top;spacingLeft=4;spacingRight=4;overflow=hidden;rotatable=0;points=[[0,0.5],[1,0.5]];portConstraint=eastwest;" parent="RLwTHn5g89vVSfLyBo9W-87" vertex="1">
          <mxGeometry y="156" width="170" height="26" as="geometry" />
        </mxCell>
        <mxCell id="RLwTHn5g89vVSfLyBo9W-94" value="email (string)" style="text;strokeColor=none;fillColor=none;align=left;verticalAlign=top;spacingLeft=4;spacingRight=4;overflow=hidden;rotatable=0;points=[[0,0.5],[1,0.5]];portConstraint=eastwest;" parent="RLwTHn5g89vVSfLyBo9W-87" vertex="1">
          <mxGeometry y="182" width="170" height="26" as="geometry" />
        </mxCell>
        <mxCell id="RLwTHn5g89vVSfLyBo9W-95" value="password (string)" style="text;strokeColor=none;fillColor=none;align=left;verticalAlign=top;spacingLeft=4;spacingRight=4;overflow=hidden;rotatable=0;points=[[0,0.5],[1,0.5]];portConstraint=eastwest;" parent="RLwTHn5g89vVSfLyBo9W-87" vertex="1">
          <mxGeometry y="208" width="170" height="26" as="geometry" />
        </mxCell>
        <mxCell id="RLwTHn5g89vVSfLyBo9W-96" value="kind (integer) " style="text;strokeColor=none;fillColor=none;align=left;verticalAlign=top;spacingLeft=4;spacingRight=4;overflow=hidden;rotatable=0;points=[[0,0.5],[1,0.5]];portConstraint=eastwest;" parent="RLwTHn5g89vVSfLyBo9W-87" vertex="1">
          <mxGeometry y="234" width="170" height="26" as="geometry" />
        </mxCell>
        <mxCell id="J4JI8BgiIcKV2Zqx2X6G-35" style="edgeStyle=orthogonalEdgeStyle;rounded=0;orthogonalLoop=1;jettySize=auto;html=1;entryX=1;entryY=0.5;entryDx=0;entryDy=0;endArrow=none;endFill=0;" edge="1" parent="1" source="RLwTHn5g89vVSfLyBo9W-63" target="RLwTHn5g89vVSfLyBo9W-36">
          <mxGeometry relative="1" as="geometry" />
        </mxCell>
        <mxCell id="J4JI8BgiIcKV2Zqx2X6G-39" style="edgeStyle=orthogonalEdgeStyle;rounded=0;orthogonalLoop=1;jettySize=auto;html=1;entryX=0.447;entryY=1.146;entryDx=0;entryDy=0;entryPerimeter=0;endArrow=none;endFill=0;" edge="1" parent="1" source="RLwTHn5g89vVSfLyBo9W-91" target="RLwTHn5g89vVSfLyBo9W-38">
          <mxGeometry relative="1" as="geometry">
            <Array as="points">
              <mxPoint x="-554" y="2127" />
            </Array>
          </mxGeometry>
        </mxCell>
      </root>
    </mxGraphModel>
  </diagram>
</mxfile>
